<?xml version="1.0" encoding="iso-8859-1"?>
<!-- Generator: Adobe Illustrator 19.0.0, SVG Export Plug-In . SVG Version: 6.00 Build 0)  -->
<svg version="1.1" id="Capa_1" xmlns="http://www.w3.org/2000/svg" xmlns:xlink="http://www.w3.org/1999/xlink" x="0px" y="0px"
	 viewBox="0 0 512 512" style="enable-background:new 0 0 512 512;" xml:space="preserve">
<g>
	<g>
		<g>
			<polygon points="252.934,361.376 216.246,324.688 193.622,347.312 236.934,390.624 236.934,512 268.934,512 268.934,390.624 
				312.246,347.312 289.622,324.688 			"/>
			<path d="M389.734,282.624c-18.501-39.559-17.015-85.573,4-123.856c0.528-0.672,1.12-1.264,1.6-1.952l-0.352-0.256
				c17.752-22.976,22.699-53.364,13.152-80.784c-7.976-24.447-11.762-50.067-11.2-75.776h-32
				c-0.561,29.296,3.837,58.475,13.008,86.304c1.981,5.69,2.992,11.671,2.992,17.696c-0.057,12.674-4.469,24.944-12.496,34.752
				l-0.544,0.8c-10.52,12.925-26.295,20.433-42.96,20.448c-30.928,0-56-25.072-56-56h-32c0,30.928-25.072,56-56,56
				c-16.181,0.057-31.581-6.956-42.16-19.2l-0.096-0.192l-1.248-1.792c-8.041-9.825-12.454-22.12-12.496-34.816
				c0.007-5.993,1.019-11.942,2.992-17.6c9.179-27.86,13.577-57.072,13.008-86.4h-32c0.561,25.714-3.226,51.339-11.2,75.792
				c-8.517,24.347-5.521,51.244,8.144,73.12l-0.448,0.256c2.086,3.451,4.406,6.755,6.944,9.888
				c19.052,34.403,22.053,75.432,8.208,112.24C96.253,336.931,89.804,407.853,101.894,476.8l6.064,31.616l31.376-6.016
				l-6.064-31.616c-11.014-63.422-4.985-128.632,17.472-188.96c10.715-29.825,13.034-62.019,6.704-93.072
				c35.893,10.137,74.261-3.653,95.488-34.32c21.308,30.695,59.769,44.454,95.712,34.24c-7.328,35.92-3.227,73.233,11.728,106.704
				c22.803,55.732,31.184,116.314,24.368,176.144l-3.2,32.544l31.856,3.056l3.2-32.544
				C423.921,409.351,414.682,343.332,389.734,282.624z"/>
			<rect x="316.934" y="96" width="32" height="32"/>
			<rect x="156.934" y="96" width="32" height="32"/>
		</g>
	</g>
</g>
<g>
</g>
<g>
</g>
<g>
</g>
<g>
</g>
<g>
</g>
<g>
</g>
<g>
</g>
<g>
</g>
<g>
</g>
<g>
</g>
<g>
</g>
<g>
</g>
<g>
</g>
<g>
</g>
<g>
</g>
</svg>
